# xmcd
#
# Track frame offsets:
# 150
# 12181
# 32274
# 46550
# 70203
# 83533
# 100258
# 122406
# 145171
# 164492
# 178100
#
# Disc length: 3061 seconds
#
#
# Revision: 0
# Processed by: cddbd v1.5.2PL0 Copyright (c) Steve Scherf et al.
# Submitted via: Nero 7, 11, 10, 0 
#
DISCID=7c0bf30b
DTITLE=Chris Cotton - The Big Sea
DYEAR=2008
DGENRE=Blues
TTITLE0=Blues And Sadness
TTITLE1=Heartbreaking Mind
TTITLE2=Life Shouldn't Be This Way
TTITLE3=44 Pistol Mama
TTITLE4=[I] The Gambler
TTITLE5=[II] The Angels
TTITLE6=[III] The Last Man
TTITLE7=What Would You Do
TTITLE8=Going Home
TTITLE9=The Big Sea
TTITLE10=Farm Jam
EXTD=
EXTT0=Blues And Sadness
EXTT1=Heartbreaking Mind
EXTT2=Life Shouldn't Be This Way
EXTT3=44 Pistol Mama
EXTT4=[I] The Gambler
EXTT5=[II] The Angels
EXTT6=[III] The Last Man
EXTT7=What Would You Do
EXTT8=Going Home
EXTT9=The Big Sea
EXTT10=Farm Jam
PLAYORDER=
